<svg version="1.1" id="Layer_1" xmlns="http://www.w3.org/2000/svg" x="0" y="0" viewBox="0 0 72 72" xml:space="preserve"><style>.st1{fill:#fff}</style><g id="Twitter"><linearGradient id="SVGID_1_" gradientUnits="userSpaceOnUse" x1="15.78" y1="365.36" x2="56.22" y2="278.64" gradientTransform="translate(0 -286)"><stop offset="0" stop-color="#3673fc"/><stop offset="1" stop-color="#26baff"/></linearGradient><path fill="url(#SVGID_1_)" d="M0 0h72v72H0z"/></g><path class="st1" d="M50.2 49.2H21.9c-1.96 0-3.5-1.5-3.5-3.4V26.2c0-1.84 1.56-3.4 3.4-3.4h28.3a3.5 3.5 0 013.5 3.5v19.5c0 1.94-1.46 3.4-3.4 3.4zM21.8 25.8c-.17 0-.4.23-.4.4v19.6c0 .32.31.4.5.4h28.3c.27 0 .4-.13.4-.4V26.3a.5.5 0 00-.5-.5H21.8z"/><path class="st1" d="M36 39.33c-.8 0-1.6-.3-2.29-.9l-14.79-12.7 1.96-2.27 14.8 12.7c.24.22.4.22.63.01l14.71-12.7 1.96 2.27-14.7 12.7c-.68.59-1.48.89-2.28.89z"/></svg>