<svg version="1.1" id="Layer_1" xmlns="http://www.w3.org/2000/svg" x="0" y="0" viewBox="0 0 72 72" xml:space="preserve"><style>.st0{fill-rule:evenodd;clip-rule:evenodd;fill:#fff}</style><path d="M0 0h72v72H0z"/><path class="st0" d="M34.534 28.88v-3.476c0-.553-.255-.81-.786-.81h-.865v5.095h.865c.53 0 .786-.256.786-.81zM31.372 42.438H32.223l-.023-.052-.017-.052-.023-.057-.023-.052-.017-.052-.022-.051-.023-.058-.018-.052-.023-.052-.022-.051-.017-.052-.023-.057-.017-.052-.023-.052-.023-.052-.017-.051-.023-.058-.023-.052-.017-.051-.023-.052-.023-.058-.017-.052-.023-.051-.023.051-.017.052-.023.058-.023.052-.017.051-.022.052-.023.058-.023.051-.017.052-.023.052-.023.052-.017.057-.023.052-.023.051-.017.052-.023.052-.023.058-.023.051-.017.052-.023.052-.023.057-.017.052-.022.052h.057z"/><path class="st0" d="M48.713 17.947H23.287c-2.061 0-2.822.76-2.822 2.823v24.879c0 .233.01.45.03.65.047.45.056.887.475 1.383.04.05.468.367.468.367.23.113.387.196.646.3l12.52 5.246c.65.298.922.414 1.394.404h.004c.472.01.744-.106 1.394-.404l12.52-5.246c.26-.104.416-.187.646-.3 0 0 .427-.318.468-.367.419-.496.428-.932.474-1.382.021-.201.03-.418.03-.651v-24.88c0-2.061-.76-2.822-2.82-2.822zm-11.128 4.791h2.103v13.823h-2.103V22.738zm-.915 18.79.028.046.029-.046.028-.05.034-.047.03-.051.027-.046.03-.052.033-.046.029-.051.029-.046.028-.046.034-.051.029-.046.029-.052.028-.046.034-.051.029-.046.029-.051.028-.046.029-.046.034-.051.028-.046.03-.052.028-.046.034-.051.028-.046.029-.046.029-.052.034-.045.029-.052.028-.046.029-.052.034-.045.028-.052.029-.046H38.886V44.108H37.784V41.637l-.03.046-.033.052-.029.046-.034.046-.029.052-.034.046-.028.046-.03.052-.033.046-.029.045-.034.046-.029.052-.034.046-.028.046-.03.052-.034.046-.028.046-.034.052-.029.046-.034.045-.029.052-.028.046-.035.046-.028.052-.034.046-.029.046-.034.046-.029.052-.028.046-.035.046-.028.051-.035.046-.028.046-.034.052-.029.046h-.023l-.034-.052-.029-.046-.034-.051-.029-.046-.034-.052-.028-.046-.034-.052-.03-.046-.034-.051-.028-.046-.034-.052-.029-.046-.034-.052-.029-.046-.034-.052-.029-.046-.034-.051-.034-.046-.029-.052-.034-.046-.029-.052-.034-.046-.028-.052-.035-.046-.028-.051-.035-.046-.028-.052-.034-.046-.029-.052-.034-.046-.029-.051-.034-.046-.029-.052-.034-.046V44.108H34.516V39.93H35.687l.028.046.029.052.034.045.029.052.028.046.029.052.028.045.035.052.028.046.029.046.028.051.029.046.034.052.029.045.029.052.028.046.034.046.03.051.027.046.029.051.028.046.035.052.029.046.028.051.029.046.028.046.034.051.03.046.027.052.03.046.027.051.035.046.029.051zm-5.89-18.79h3.302c1.71 0 2.555.85 2.555 2.567v3.674c0 1.717-.845 2.566-2.555 2.566h-1.199v5.016h-2.102V22.738zm-5.731 0h4.677v1.916h-2.574v3.91h2.476v1.915h-2.476v4.167h2.614v1.915h-4.717V22.738zm3.98 18.994V43.54l-.04.034-.046.035-.04.028-.046.035-.045.028-.046.035-.046.028-.045.03-.052.028-.051.029-.051.028-.052.023-.051.029-.057.023-.052.022-.057.023-.051.023-.052.018-.051.017-.052.017-.057.017-.051.018-.057.011-.052.011-.057.012-.057.011-.057.006-.063.006-.057.006-.063.005-.057.006-.063.006h-.246l-.057-.006-.063-.006-.057-.005-.057-.006-.057-.006-.057-.011-.057-.012-.052-.011-.057-.012-.051-.017-.057-.011-.052-.018-.051-.023-.052-.017-.057-.023-.051-.023-.052-.023-.05-.023-.053-.028-.045-.029-.051-.028-.046-.03-.046-.028-.046-.034-.045-.035-.046-.034-.04-.035-.04-.034-.04-.04-.04-.035-.04-.04-.04-.04-.034-.04-.035-.046-.034-.04-.029-.046-.034-.046-.028-.046-.029-.046-.028-.051-.03-.046-.022-.052-.023-.052-.023-.051-.022-.052-.017-.046-.023-.052-.012-.051-.017-.052-.011-.057-.018-.052-.011-.057-.006-.052-.011-.057-.006-.052-.006-.057-.005-.058-.006-.057v-.189l.006-.064v-.057l.005-.057.006-.063.012-.058.005-.057.012-.052.017-.057.011-.057.017-.052.018-.057.017-.052.023-.057.022-.052.023-.052.023-.051.023-.052.029-.052.028-.046.029-.046.028-.045.029-.046.034-.046.034-.046.035-.046.034-.04.04-.04.034-.04.04-.04.04-.04.04-.035.046-.04.04-.035.045-.034.046-.029.046-.034.046-.03.045-.028.052-.029.051-.028.052-.029.051-.023.052-.023.057-.029.045-.017.057-.017.052-.023.051-.011.052-.018.057-.011.051-.017.057-.012.057-.006.058-.011.057-.006.057-.005.057-.006.057-.006h.246l.063.006.063.006h.057l.057.005.063.012.051.005.057.012.057.011.052.012.051.011.052.012.051.017.052.012.045.017.052.017.051.023.051.023.052.023.051.029.052.023.046.028.05.029.046.029.052.028.046.035.045.028.046.035.046.034.046.04.045.035-.034.046-.04.04-.034.046-.04.046-.035.046-.034.04-.04.046-.034.046-.035.04-.04.046-.034.046-.04.046-.034.04-.034.046-.04.046-.035.045-.04.04-.034.047-.046-.035-.045-.04-.046-.029-.046-.034-.045-.029-.046-.029-.046-.028-.051-.029-.046-.023-.046-.023-.045-.017-.052-.017-.051-.018-.052-.011-.057-.012-.057-.011-.057-.006-.063-.005-.063-.006h-.12l-.057.006-.051.005-.057.012-.052.011-.051.017-.052.018-.05.023-.052.023-.046.028-.046.029-.046.029-.04.034-.04.035-.04.034-.034.04-.04.04-.034.046-.029.04-.028.046-.029.052-.028.046-.023.051-.017.052-.023.052-.017.057-.012.057-.011.052-.012.063-.005.057-.006.058v.132l.006.057.005.052.006.057.011.052.012.052.011.051.018.052.017.046.023.057.022.052.029.051.028.046.03.046.033.046.035.04.04.04.034.04.04.035.046.034.045.035.046.029.046.028.051.023.051.023.052.023.057.017.057.018.058.011.057.012.057.005.062.006h.132l.063-.006.063-.005.057-.006.057-.012.057-.011.057-.017.051-.012.052-.023.046-.023.051-.023.04-.023.046-.028v-.523H27.144V41.675H29.029v.057zm.886 2.376h-.463l.023-.052.023-.052.023-.052.022-.057.018-.051.023-.052.023-.051.022-.052.023-.052.023-.057.023-.052.023-.051.017-.052.023-.052.022-.051.023-.058.023-.051.023-.052.023-.052.023-.051.017-.052.023-.057.023-.052.023-.052.022-.051.023-.052.023-.052.023-.057.017-.052.023-.051.023-.052.023-.052.022-.051.023-.058.023-.051.023-.052.017-.052.023-.051.023-.052.023-.057.023-.052.022-.052.023-.051.023-.052.017-.052.023-.05.023-.058.023-.052.023-.052.023-.051.022-.052.023-.051.017-.058.023-.051.023-.052.023-.052.023-.051.023-.052.022-.057.023-.052.018-.052.022-.051.023-.052.023-.052.023-.057.023-.052.023-.051.023-.052.016-.052.023-.051.023-.058.023-.051.023-.052.023-.052.023-.051.022-.052.018-.057.023-.052.023-.052.022-.051H32.28l.023.051.023.052.023.052.023.057.017.052.022.051.023.052.023.052.023.051.023.058.023.051.023.052.017.052.023.051.023.052.023.057.022.052.023.052.023.051.023.052.017.052.023.057.023.052.023.051.022.052.023.052.023.051.023.058.017.051.023.052.023.051.023.052.023.052.022.057.023.051.023.052.017.052.023.051.023.052.023.052.023.057.022.052.023.051.023.052.017.052.023.051.023.058.023.051.023.052.023.052.022.051.023.052.017.057.023.052.023.052.023.051.023.052.023.052.023.057.023.052.016.051.023.052.023.052.023.051.023.058.023.051.023.052.022.052.018.051.023.052.022.057.023.052.023.051.023.052.023.052.023.051.017.057.022.052.023.052.023.051H32.874l-.022-.051-.018-.052-.023-.051-.022-.058-.017-.051-.023-.052-.023-.051-.017-.052-.023-.052-.023-.051-.017-.052-.023-.057-.023-.052-.017-.052-.023-.051h-1.64l-.022.051-.017.052-.023.052-.023.057-.017.052-.023.051-.023.052-.017.052-.023.051-.023.052-.017.051-.023.057-.023.052-.017.052-.023.052H29.915zm5.988 6.978L30.01 49.06h12.037l-6.144 2.026zm7.157-7.868V44.108H39.73V39.93H43.032V40.877H40.82V41.56H42.809V42.45H40.821V43.161H43.06v.057zm-2.26-9.105v-8.926c0-1.718.845-2.567 2.555-2.567h1.022c1.71 0 2.535.83 2.535 2.547v2.824h-2.064v-2.706c0-.552-.255-.809-.786-.809h-.354c-.55 0-.806.257-.806.81v8.728c0 .553.256.81.806.81h.394c.53 0 .785-.257.785-.81v-3.12h2.064v3.219c0 1.718-.845 2.567-2.555 2.567h-1.041c-1.71 0-2.555-.85-2.555-2.567zm6.216 8.71v.074l-.006.063-.006.057-.005.064-.012.057-.017.057-.011.052-.017.057-.023.052-.023.046-.023.052-.029.045-.028.046-.034.046-.03.046-.033.04-.04.04-.035.035-.045.04-.04.035-.046.034-.046.028-.045.035-.052.028-.051.023-.052.03-.057.022-.057.023-.057.017-.057.018-.052.017-.057.011-.051.012-.051.011-.058.012-.057.005-.051.006-.058.006-.062.006-.057.005h-.24l-.057-.005h-.063l-.057-.006-.058-.006-.062-.006-.057-.011-.058-.006-.057-.011-.057-.012-.057-.011-.057-.012-.057-.017-.052-.011-.057-.018-.057-.017-.051-.023-.058-.017-.05-.017-.058-.023-.052-.023-.05-.023-.052-.028-.052-.023-.051-.03-.046-.028-.051-.029-.046-.028-.046-.029-.045-.034-.046-.035-.046-.034-.046-.035-.04-.034-.045-.04.034-.046.04-.04.034-.046.04-.046.035-.04.034-.046.04-.046.034-.04.04-.046.034-.04.04-.046.035-.046.034-.04.04-.046.034-.046.04-.04.035-.046.045.034.051.035.046.034.052.035.046.028.05.035.046.028.052.023.046.029.051.023.052.023.05.023.052.017.052.023.057.017.057.017.051.018.058.011.057.012.057.011.063.006.057.011h.057l.063.006h.125l.063-.006.058-.011.05-.012.052-.011.046-.017.04-.023.046-.035.034-.04.023-.046.017-.051.006-.058v-.011l-.006-.07-.023-.057-.029-.04-.04-.034-.045-.035-.046-.023-.051-.023-.058-.023-.068-.028-.04-.012-.045-.011-.052-.017-.051-.012-.058-.017-.057-.012-.063-.017-.057-.011-.063-.017-.057-.012-.057-.017-.057-.012-.057-.017-.052-.017-.057-.012-.051-.017-.051-.017-.052-.017-.063-.023-.057-.023-.057-.023-.057-.023-.052-.029-.057-.028-.046-.03-.05-.028-.046-.034-.046-.029-.04-.034-.04-.04-.04-.04-.035-.04-.034-.041-.028-.04-.029-.046-.028-.052-.023-.04-.018-.045-.016-.052-.018-.046-.011-.057-.012-.052-.005-.057-.006-.058-.006-.063v-.132l.006-.057.006-.052.005-.057.012-.052.011-.052.018-.051.011-.052.023-.052.023-.051.022-.052.029-.052.029-.051.034-.046.034-.046.04-.046.04-.04.04-.046.046-.04.04-.029.046-.034.045-.035.046-.028.051-.03.052-.022.051-.029.052-.023.057-.017.057-.023.051-.017.046-.012.051-.011.052-.012.057-.011.051-.012.057-.005.058-.006.057-.006.057-.006h.245l.063.006.063.006h.057l.063.006.057.011.063.006.057.011.052.012.057.011.057.012.051.011.058.018.05.017.052.011.058.023.05.017.052.023.052.023.057.023.051.029.046.023.051.029.052.028.045.029.052.034.046.03.045.034.046.034.046.034-.034.046-.03.046-.033.046-.035.046-.034.052-.029.046-.034.046-.034.045-.029.046-.034.046-.034.046-.029.046-.034.052-.035.046-.034.046-.028.045-.034.046-.046-.034-.052-.029-.045-.028-.046-.035-.051-.023-.046-.029-.052-.023-.045-.022-.052-.023-.045-.023-.052-.018-.046-.023-.062-.017-.057-.017-.057-.017-.058-.012-.057-.011-.057-.012-.057-.005-.057-.006-.052-.006h-.125l-.063.012-.057.011-.052.012-.045.023-.04.022-.052.046-.034.052-.023.052-.006.057v.012l.006.074.028.063.023.035.04.04.052.029.046.028.057.023.063.023.068.023.046.012.045.017.052.011.051.018.057.011.063.017.063.017.063.018.063.011.057.017.063.018.057.011.057.017.057.017.051.018.058.017.051.017.051.017.064.023.057.029.057.023.057.028.051.029.052.029.045.028.046.035.046.029.045.04.046.04.04.046.04.04.034.046.035.051.028.046.029.052.023.046.017.052.017.051.011.052.012.057.011.058.006.057.006.063v.063z"/></svg>