<?xml version="1.0" encoding="utf-8"?>
<!-- Generator: Adobe Illustrator 23.0.3, SVG Export Plug-In . SVG Version: 6.00 Build 0)  -->
<svg version="1.1" id="Layer_1" xmlns="http://www.w3.org/2000/svg" xmlns:xlink="http://www.w3.org/1999/xlink" x="0px" y="0px"
	 viewBox="0 0 72 72" style="enable-background:new 0 0 72 72;" xml:space="preserve">
<style type="text/css">
	.st0{fill:#0077B5;}
	.st1{fill:#FFFFFF;}
</style>
<g id="Twitter">
	<rect class="st0" width="72" height="72"/>
</g>
<g id="Guides">
</g>
<g>
	<path id="LinkedIn_3_" class="st1" d="M54,39.3v13.4h-7.8V40.2c0-3.2-1.1-5.3-3.9-5.3c-2.2,0-3.4,1.5-4,2.8
		c-0.2,0.5-0.3,1.2-0.3,1.9v13.1h-7.8c0,0,0.1-21.2,0-23.4H38v3.3c0,0,0,0,0,0.1l0,0v-0.1c1-1.6,2.9-3.9,7-3.9
		C50.2,28.8,54,32.1,54,39.3z M22,18c-2.7,0-4.4,1.7-4.4,4.1c0,2.2,1.7,4.1,4.3,4.1l0,0c2.7,0,4.4-1.8,4.4-4.1
		C26.4,19.8,24.7,18,22,18z M18.1,52.8h7.8V29.3h-7.8C18.1,29.3,18.1,52.8,18.1,52.8z"/>
</g>
</svg>
